<?xml version="1.0" encoding="UTF-8"?>
<svg version="1.1" xmlns="http://www.w3.org/2000/svg" width="2000" height="1500">
<path d="M0 0 C660 0 1320 0 2000 0 C2000 495 2000 990 2000 1500 C1340 1500 680 1500 0 1500 C0 1005 0 510 0 0 Z " fill="#FEFEFE" transform="translate(0,0)"/>
<path d="M0 0 C120.06038136 0 120.06038136 0 144.8984375 23.8671875 C145.93871094 24.92292969 145.93871094 24.92292969 147 26 C147.54914063 26.53882813 148.09828125 27.07765625 148.6640625 27.6328125 C157.10956775 36.62027531 162.01237247 48.22352644 165 60 C165.28617188 61.06734375 165.57234375 62.1346875 165.8671875 63.234375 C170.56142655 81.2066045 170.99478661 101.79387482 167 120 C166.75507812 121.17691406 166.51015625 122.35382813 166.2578125 123.56640625 C162.76804723 138.3747465 156.6381349 151.95834964 146 163 C145.31421875 163.71414063 144.6284375 164.42828125 143.921875 165.1640625 C107.64424699 199.96371307 40.87392888 188 0 188 C0 125.96 0 63.92 0 0 Z " fill="#010101" transform="translate(656,542)"/>
<path d="M0 0 C1.03302246 -0.0103125 2.06604492 -0.020625 3.13037109 -0.03125 C21.50609388 0.17925947 39.26756491 7.5151374 52.5625 20.1875 C68.84360415 37.24266615 73.00620903 57.04181034 72.53125 79.83984375 C71.86194144 100.10316025 63.94639588 117.33574579 49.3125 131.4375 C33.66419233 144.76953493 14.39847595 149.27626178 -5.7578125 148.77734375 C-24.88045417 147.12359641 -43.30735532 138.46278294 -55.875 123.8125 C-70.22720105 104.87919235 -74.02807884 82.08446178 -71.40332031 58.93066406 C-68.33025173 40.33571554 -57.67519617 23.70873492 -42.6875 12.4375 C-29.3458598 3.61983902 -15.90370926 0.13137745 0 0 Z " fill="#020202" transform="translate(1023.6875,585.5625)"/>
<path d="M0 0 C13.25134602 12.27768081 21.13486303 29.80521821 21.84375 47.765625 C21.87774281 50.38521683 21.88752332 53.00521756 21.875 55.625 C21.87356995 56.30720612 21.87213989 56.98941223 21.8706665 57.69229126 C21.81500019 68.42220916 20.8757333 77.55413869 16.375 87.375 C15.68857422 88.98955078 15.68857422 88.98955078 14.98828125 90.63671875 C8.74919004 104.26015902 -1.06197207 114.83827751 -14.375 121.625 C-14.99375 121.94227051 -15.6125 122.25954102 -16.25 122.58642578 C-27.08837459 127.82662569 -37.48570845 130.06572937 -49.5 129.875 C-50.72654297 129.86291504 -51.95308594 129.85083008 -53.21679688 129.83837891 C-74.05422908 129.38238735 -90.65594686 121.74347123 -105.25 106.875 C-118.9740191 90.944469 -124.14395201 69.29935308 -122.82568359 48.68945312 C-121.08713482 28.63903662 -112.42667806 10.32559828 -97.05859375 -2.8203125 C-68.29120378 -24.84599973 -27.5920591 -22.67513507 0 0 Z " fill="#010101" transform="translate(914.625,854.625)"/>
<path d="M0 0 C2.51757624 2.20287921 4.89778689 4.48177829 7.25 6.859375 C7.80171875 7.37757813 8.3534375 7.89578125 8.921875 8.4296875 C24.4403119 24.36528668 26.25 49.25280327 26.25 69.859375 C-6.42 69.859375 -39.09 69.859375 -72.75 69.859375 C-70.99521086 81.26550438 -69.15128782 92.35680555 -60.3125 100.546875 C-58.57244892 101.83423817 -58.57244892 101.83423817 -56.75 102.859375 C-56.18023438 103.19324219 -55.61046875 103.52710938 -55.0234375 103.87109375 C-48.00890656 107.16941574 -39.22247291 106.97449559 -31.8359375 105.1328125 C-23.64349033 102.08848923 -18.79062379 97.68539347 -14.828125 89.9453125 C-13.75 87.859375 -13.75 87.859375 -11.75 84.859375 C-5.87136548 85.45324387 -0.47331432 86.63021465 5.1875 88.296875 C11.17166611 90.03687843 17.15035241 91.57519117 23.25 92.859375 C21.31704475 104.35537201 13.898794 114.64065552 4.65795898 121.50708008 C-5.31642207 128.51455645 -15.89704933 132.31331303 -27.75 134.859375 C-28.55050781 135.045 -29.35101562 135.230625 -30.17578125 135.421875 C-49.61620564 138.72586215 -70.8416622 133.11949535 -86.75 121.859375 C-100.72287935 111.12169357 -109.8439624 96.01744843 -113.390625 78.73828125 C-113.93122528 72.90332386 -113.9752077 67.09155699 -114 61.234375 C-114.020625 60.03941406 -114.04125 58.84445312 -114.0625 57.61328125 C-114.11134233 46.34291432 -112.41552136 35.77656832 -107.125 25.734375 C-106.77727539 25.0633374 -106.42955078 24.3922998 -106.07128906 23.70092773 C-97.14700939 7.06443046 -82.38997285 -4.27677579 -64.4375 -9.953125 C-43.74207712 -15.91253997 -17.26646296 -13.44037174 0 0 Z " fill="#030303" transform="translate(1386.75,598.140625)"/>
<path d="M0 0 C8.01291297 6.21571687 14.18379928 12.98904381 19 22 C19.45890625 22.8146875 19.9178125 23.629375 20.390625 24.46875 C23.26740956 30.08367891 24.91137962 35.8814609 26.3125 42 C26.57003052 43.05574219 26.57003052 43.05574219 26.83276367 44.1328125 C28.73343875 53.23860277 28 61.3018749 28 71 C-4.67 71 -37.34 71 -71 71 C-67.45854628 90.7434502 -67.45854628 90.7434502 -54.5625 104.6875 C-46.97421202 108.57418409 -39.34906834 109.23548035 -31.0234375 107.3125 C-20.66075125 103.8868186 -15.97571547 98.8088423 -11.06640625 89.1953125 C-10.53853516 88.10863281 -10.53853516 88.10863281 -10 87 C-2.1859248 87.59336828 5.02892377 89.457101 12.5625 91.5625 C13.76197266 91.89185547 14.96144531 92.22121094 16.19726562 92.56054688 C19.13323933 93.36764722 22.06734878 94.18092529 25 95 C23.27247154 106.39540237 16.44198644 115.6834854 7.65234375 122.9375 C-10.79391183 136.50178302 -34.18724965 139.95718329 -56.56152344 136.61767578 C-61.26625411 135.59254835 -65.59349082 133.95237667 -70 132 C-71.13308594 131.50371094 -72.26617188 131.00742187 -73.43359375 130.49609375 C-90.56937458 122.11994647 -102.05988961 107.49511661 -109 90 C-115.40664663 69.56684131 -114.1246725 45.15879758 -104.3125 26.125 C-100.73213728 19.61072894 -96.35297256 14.17359606 -91 9 C-90.34128906 8.35546875 -89.68257812 7.7109375 -89.00390625 7.046875 C-66.48425892 -13.79625935 -25.76123388 -17.2697006 0 0 Z " fill="#010101" transform="translate(1175,847)"/>
<path d="M0 0 C43.23 0 86.46 0 131 0 C131 11.22 131 22.44 131 34 C100.97 34 70.94 34 40 34 C40 47.53 40 61.06 40 75 C66.4 75 92.8 75 120 75 C120 86.22 120 97.44 120 109 C93.6 109 67.2 109 40 109 C40 135.07 40 161.14 40 188 C26.8 188 13.6 188 0 188 C0 125.96 0 63.92 0 0 Z " fill="#000000" transform="translate(656,793)"/>
<path d="M0 0 C0.98613281 0.36222656 1.97226562 0.72445312 2.98828125 1.09765625 C11.94035056 4.59548466 21.38113454 9.02989009 29.25461769 14.59304047 C32.77436598 16.39684877 35.32417277 16.37636118 39.27377319 16.37854004 C39.99589512 16.38307017 40.71801706 16.3876003 41.46202147 16.3922677 C43.87639546 16.40387447 46.29021358 16.39425189 48.70458984 16.38476562 C50.43779355 16.38887157 52.1709945 16.39433258 53.90419006 16.40104675 C57.63429487 16.41276923 61.36425172 16.41525696 65.0943718 16.41069031 C70.99443868 16.40388092 76.8943109 16.41974848 82.79434204 16.43908691 C95.32121753 16.47694999 107.84807606 16.48974147 120.375 16.5 C133.89201676 16.51107378 147.40894393 16.5264365 160.92589915 16.57071257 C166.7889167 16.58905997 172.6517118 16.59296421 178.5147512 16.58577728 C182.16543371 16.58425393 185.81600527 16.5950489 189.46665764 16.60915565 C191.1569025 16.61315358 192.84716854 16.61204135 194.53740501 16.60538292 C196.84929352 16.59697666 199.16041679 16.60701934 201.47225952 16.62145996 C202.76457174 16.62217247 204.05688396 16.62288498 205.38835716 16.62361908 C210.63256469 17.17013482 214.54176626 18.59268493 218.40911865 22.32499695 C220.26132343 25.43940484 220.48604411 27.1985264 220.45410156 30.80004883 C220.45364838 32.51125664 220.45364838 32.51125664 220.45318604 34.2570343 C220.43254089 35.47803329 220.41189575 36.69903229 220.390625 37.95703125 C220.38496521 39.21513107 220.37930542 40.4732309 220.37347412 41.76945496 C220.35490044 45.10222785 220.31901116 48.43389216 220.2746582 51.76635742 C220.23362121 55.17161515 220.21544527 58.57698775 220.1953125 61.98242188 C220.15123104 68.65529241 220.08219318 75.32749445 220 82 C214.72 82 209.44 82 204 82 C200.74381807 74.3683236 197.67020941 66.67969709 194.6875 58.9375 C194.32591797 58.0091333 193.96433594 57.0807666 193.59179688 56.12426758 C193.0880957 54.80785278 193.0880957 54.80785278 192.57421875 53.46484375 C192.11921997 52.28329712 192.11921997 52.28329712 191.6550293 51.07788086 C191 49 191 49 191 46 C161.96 46 132.92 46 103 46 C114.42118882 67.54242652 114.42118882 67.54242652 126 89 C126 89.66 126 90.32 126 91 C104.87891294 93.77382631 104.87891294 93.77382631 97.078125 87.859375 C93.38105161 84.52271982 90.07524484 80.85112649 86.83154297 77.07714844 C84.21328041 74.10778323 81.32855556 71.50330205 78.375 68.875 C77.34315831 67.92914512 76.31322278 66.98120681 75.28515625 66.03125 C74.50229248 65.31001953 74.50229248 65.31001953 73.70361328 64.57421875 C70.3966738 61.51845123 67.10454842 58.44679189 63.8125 55.375 C63.16394043 54.77026855 62.51538086 54.16553711 61.84716797 53.54248047 C61.24404785 52.97932129 60.64092773 52.41616211 60.01953125 51.8359375 C59.48432861 51.33626465 58.94912598 50.8365918 58.39770508 50.32177734 C57.2468984 49.2334861 56.11998523 48.11998523 55 47 C53.06340977 46.70111053 53.06340977 46.70111053 50.81607056 46.75517273 C49.93876282 46.75123505 49.06145508 46.74729736 48.15756226 46.74324036 C46.70985947 46.75178291 46.70985947 46.75178291 45.23291016 46.76049805 C44.21801514 46.75848389 43.20312012 46.75646973 42.1574707 46.75439453 C39.94650165 46.75084126 37.73552245 46.75162563 35.52455521 46.75617027 C32.01766498 46.76175281 28.51110691 46.75261945 25.00424194 46.7389679 C15.03064616 46.70181208 5.05715909 46.68325152 -4.91650391 46.69458008 C-11.01387393 46.70045642 -17.11078162 46.68203923 -23.2080574 46.64869118 C-25.52589246 46.64076909 -27.84377833 46.64197049 -30.16160202 46.65271568 C-53.47534353 46.75605793 -53.47534353 46.75605793 -63 41 C-64.10859375 40.33355469 -65.2171875 39.66710937 -66.359375 38.98046875 C-67.14828125 38.38878906 -67.9371875 37.79710937 -68.75 37.1875 C-69.97976563 36.28064453 -69.97976563 36.28064453 -71.234375 35.35546875 C-72.10835938 34.68451172 -72.10835938 34.68451172 -73 34 C-71.05684548 22.34107291 -63.21027454 12.10339095 -54.31640625 4.63671875 C-38.27048887 -6.70095306 -17.98999922 -6.95430895 0 0 Z " fill="#050EB6" transform="translate(339,540)"/>
<path d="M0 0 C1.32620361 0.00845947 1.32620361 0.00845947 2.67919922 0.01708984 C15.99688899 0.26321732 27.10737995 3.61545374 36.5625 13.375 C49.64557613 29.15398272 49.75011492 48.04591112 49.60546875 67.45703125 C49.59986353 69.68047294 49.59559781 71.90391837 49.59260559 74.12736511 C49.58122974 79.93879687 49.55182601 85.74999857 49.51849365 91.56134033 C49.48763517 97.50765879 49.47406673 103.45401493 49.45898438 109.40039062 C49.42694853 121.03787702 49.37424089 132.67513326 49.3125 144.3125 C36.4425 144.3125 23.5725 144.3125 10.3125 144.3125 C10.29791748 141.48703613 10.28333496 138.66157227 10.26831055 135.75048828 C10.21785958 126.39062877 10.15124601 117.03093378 10.07678509 107.67123604 C10.03215403 101.9992631 9.99288187 96.32736079 9.96606445 90.65527344 C9.93995908 85.17622251 9.89950548 79.69744443 9.84931374 74.21856308 C9.83269389 72.13354779 9.82114934 70.04848536 9.81488609 67.96341324 C9.8051918 65.03147365 9.77706912 62.10022449 9.74487305 59.16845703 C9.74630814 58.31608963 9.74774323 57.46372223 9.7492218 56.58552551 C9.63809847 49.37924444 8.49659941 41.77518923 4.0625 35.875 C-1.68623471 30.51822447 -6.93996658 29.675699 -14.625 29.90625 C-22.30817047 30.92544608 -28.37653334 34.87870001 -33.15625 40.8984375 C-42.07945401 54.96614178 -41.98337977 71.77607664 -42.1015625 87.8671875 C-42.12032515 89.50628579 -42.1399021 91.14537494 -42.1602478 92.78445435 C-42.21103781 97.04871163 -42.25094365 101.31300005 -42.28839111 105.57739258 C-42.33589773 110.72061483 -42.39726233 115.86368909 -42.45623779 121.00679016 C-42.54380018 128.7752986 -42.61402786 136.5437881 -42.6875 144.3125 C-55.2275 144.3125 -67.7675 144.3125 -80.6875 144.3125 C-80.6875 97.7825 -80.6875 51.2525 -80.6875 3.3125 C-68.4775 3.3125 -56.2675 3.3125 -43.6875 3.3125 C-43.3575 10.5725 -43.0275 17.8325 -42.6875 25.3125 C-41.57375 23.6625 -40.46 22.0125 -39.3125 20.3125 C-29.55687938 6.92006674 -16.51904146 -0.10985492 0 0 Z " fill="#010101" transform="translate(1308.6875,836.6875)"/>
<path d="M0 0 C11.68640105 9.1206046 16.85829643 22.09161211 19.01187515 36.45003128 C19.96451692 44.80165963 19.63447867 53.28931975 19.5703125 61.6796875 C19.56470472 63.85543014 19.56044022 66.03117662 19.55744934 68.20692444 C19.54609357 73.88352246 19.51670798 79.55988358 19.4833374 85.23638916 C19.45243478 91.04883624 19.43890119 96.86132226 19.42382812 102.67382812 C19.39182787 114.04178654 19.33913752 125.40950822 19.27734375 136.77734375 C6.73734375 136.77734375 -5.80265625 136.77734375 -18.72265625 136.77734375 C-18.73723877 134.08352539 -18.75182129 131.38970703 -18.7668457 128.61425781 C-18.81736003 119.67749529 -18.88398421 110.74090392 -18.95837116 101.80430984 C-19.00294902 96.39022584 -19.04223248 90.97621491 -19.0690918 85.56201172 C-19.0952508 80.3293324 -19.13574108 75.09693619 -19.18584251 69.86443329 C-19.20242645 67.87596937 -19.21399315 65.88745658 -19.22027016 63.89893341 C-18.79746068 44.67153313 -18.79746068 44.67153313 -26.72265625 27.77734375 C-31.83491528 23.15981947 -37.19047251 22.32598742 -43.875 22.4609375 C-50.9400601 23.24594418 -56.75186985 26.77419657 -61.72265625 31.77734375 C-63.84326019 34.84744947 -63.84326019 34.84744947 -65.47265625 38.27734375 C-66.33117188 39.9325 -66.33117188 39.9325 -67.20703125 41.62109375 C-71.75387221 52.63392616 -71.05559962 65.40152749 -71.13671875 77.109375 C-71.15547298 78.83958312 -71.17504939 80.5697825 -71.19540405 82.29997253 C-71.24628252 86.80920206 -71.28614236 91.3184611 -71.32354736 95.82781982 C-71.3709824 101.26219352 -71.43238666 106.69642591 -71.49139404 112.1306839 C-71.57906495 120.34617874 -71.6492156 128.56165397 -71.72265625 136.77734375 C-84.59265625 136.77734375 -97.46265625 136.77734375 -110.72265625 136.77734375 C-110.72265625 90.24734375 -110.72265625 43.71734375 -110.72265625 -4.22265625 C-98.51265625 -4.22265625 -86.30265625 -4.22265625 -73.72265625 -4.22265625 C-73.22765625 7.16234375 -73.22765625 7.16234375 -72.72265625 18.77734375 C-70.74265625 15.80734375 -68.76265625 12.83734375 -66.72265625 9.77734375 C-59.46426898 1.11143652 -51.59359583 -3.48643336 -40.72265625 -6.22265625 C-39.81580078 -6.50109375 -39.81580078 -6.50109375 -38.890625 -6.78515625 C-26.0565555 -9.3750946 -10.89676982 -7.22330447 0 0 Z " fill="#010101" transform="translate(1230.72265625,593.22265625)"/>
<path d="M0 0 C0.99 0.27972656 1.98 0.55945313 3 0.84765625 C17.47067446 5.31547699 29.68271324 13.35555439 37 27 C38.67744959 30.65467154 40 33.9195376 40 38 C32.95841978 40.13185456 25.83001581 41.72663535 18.625 43.1875 C17.75713867 43.36635742 16.88927734 43.54521484 15.99511719 43.72949219 C11.94720652 44.53467954 8.15109053 45.24769882 4 45 C3.79246094 44.27554688 3.58492187 43.55109375 3.37109375 42.8046875 C0.89761439 35.04272297 -1.90836509 30.64655124 -9.171875 26.87109375 C-13.08246918 25.66658753 -16.74233838 25.63172198 -20.8125 25.625 C-21.58142578 25.60050781 -22.35035156 25.57601562 -23.14257812 25.55078125 C-28.88069588 25.52172749 -33.21183815 26.79046793 -38 30 C-40.56118571 32.6861216 -41.84739133 34.4846227 -42.22265625 38.2109375 C-42.04074086 42.59146016 -41.41004855 44.53994553 -38.4375 47.875 C-31.37783144 52.75441587 -22.81617031 54.00788711 -14.5625 55.5625 C25.3728851 63.25428854 25.3728851 63.25428854 37 79 C42.49927182 88.29187307 43.3074185 98.18844914 41.53515625 108.77734375 C38.92454066 118.55556664 33.14080622 128.73300727 24.28564453 134.02441406 C3.30825231 145.68380616 -22.53010526 149.28482537 -46 143 C-60.6744647 138.51175273 -74.6307859 130.60821684 -82.06347656 116.71704102 C-84.74458214 111.44359431 -86.3979169 106.91546646 -87 101 C-82.89503211 99.54883047 -78.89356186 98.49914991 -74.61328125 97.7109375 C-73.42798828 97.49179687 -72.24269531 97.27265625 -71.02148438 97.046875 C-69.79751953 96.82515625 -68.57355469 96.6034375 -67.3125 96.375 C-66.07693359 96.14554688 -64.84136719 95.91609375 -63.56835938 95.6796875 C-54.40506417 94 -54.40506417 94 -51 94 C-50.79697266 95.051875 -50.79697266 95.051875 -50.58984375 96.125 C-48.74845383 104.24034717 -45.96252537 109.71337438 -38.91796875 114.37890625 C-30.51768851 118.48602794 -19.85009456 118.29517019 -10.859375 116.3046875 C-4.68601822 114.10519811 -0.96018676 110.92037352 2 105 C2.55604279 100.4422722 2.40693381 96.89864549 0.5 92.6875 C-6.57134798 85.08580093 -16.78253387 84.56147084 -26.5 83.0625 C-35.42045234 81.68138968 -44.14221716 80.17137952 -52.77734375 77.48828125 C-53.43041504 77.28590347 -54.08348633 77.0835257 -54.75634766 76.87501526 C-64.52526973 73.6885552 -73.49064483 67.12849092 -78.375 57.9375 C-82.81587534 48.80474332 -82.28871728 36.61822543 -79.0625 27.25 C-73.78088402 15.03533318 -64.07752838 7.6120201 -52.25 2.25 C-36.8771777 -3.74116257 -15.94586144 -4.52310493 0 0 Z " fill="#020202" transform="translate(1465,839)"/>
<path d="M0 0 C1.01191406 -0.020625 2.02382812 -0.04125 3.06640625 -0.0625 C20.798124 -0.15331546 36.84961635 7.42650549 49.75 19.3125 C57.50968716 27.3886283 65.125 39.6995284 65.125 51.25 C60.66074419 52.25366629 56.19500887 53.2503585 51.7277832 54.24072266 C50.2094566 54.57834437 48.69154576 54.91784171 47.17407227 55.25927734 C44.98821879 55.75075407 42.80094088 56.23538486 40.61328125 56.71875 C39.93912674 56.87186646 39.26497223 57.02498291 38.57038879 57.18273926 C35.02669574 57.95837933 31.75354062 58.42089846 28.125 58.25 C27.77888672 57.08984375 27.77888672 57.08984375 27.42578125 55.90625 C24.13508205 45.3968233 20.21391673 36.80108903 10.28515625 31.21484375 C3.94042504 28.425238 -3.03451467 28.10270214 -9.66015625 30.08203125 C-12.12195921 31.05007454 -14.4986243 32.08934591 -16.875 33.25 C-17.58785156 33.54132812 -18.30070312 33.83265625 -19.03515625 34.1328125 C-21.37779774 35.55530818 -21.81527693 36.74198873 -22.875 39.25 C-23.5865625 40.53390625 -23.5865625 40.53390625 -24.3125 41.84375 C-24.828125 42.8028125 -25.34375 43.761875 -25.875 44.75 C-26.6484375 46.15765625 -26.6484375 46.15765625 -27.4375 47.59375 C-33.16161575 62.15291397 -33.76663654 83.9125493 -28.13671875 98.58984375 C-23.90722319 107.50713935 -20.13394063 113.19330806 -11.1875 117.5625 C-2.00734909 119.46781434 7.30234309 119.04738494 15.28125 113.84375 C22.31540885 108.27941538 25.66914397 100.73386629 28.125 92.25 C36.12522602 92.85247487 43.88776936 94.2479424 51.75 95.8125 C53.54244141 96.16344727 53.54244141 96.16344727 55.37109375 96.52148438 C58.28989275 97.09356898 61.2078012 97.66982075 64.125 98.25 C61.55953218 113.43443433 54.80314301 125.82579376 42.25 135 C22.9835696 147.63994601 1.64365035 149.89587672 -20.875 146.25 C-37.32271024 142.3180558 -52.64046662 132.51818685 -61.875 118.25 C-73.81656375 97.64740231 -76.42972207 72.62449501 -70.83984375 49.4921875 C-65.55198689 31.72327577 -55.56653108 17.81160223 -39.35546875 8.5625 C-26.42294901 1.71946593 -14.46914791 0.07316889 0 0 Z " fill="#020202" transform="translate(1666.875,836.75)"/>
<path d="M0 0 C56.88372093 0 56.88372093 0 72 15 C83.40064477 28.84364008 86.17702407 42.81733839 86.1875 60.375 C86.19974609 61.4475 86.21199219 62.52 86.22460938 63.625 C86.25433947 79.9170919 81.89608705 94.43290929 70.875 106.6875 C52.40917902 124.25652614 22.1009337 120 0 120 C0 80.4 0 40.8 0 0 Z " fill="#FDFDFD" transform="translate(696,576)"/>
<path d="M0 0 C0.495 0.495 0.495 0.495 1 1 C0.96040511 3.53711875 0.85266682 6.03260755 0.6875 8.5625 C0.64117432 9.31523193 0.59484863 10.06796387 0.54711914 10.84350586 C0.02891036 18.60531946 -0.93218803 26.29723986 -2 34 C-3.70542969 33.76216797 -3.70542969 33.76216797 -5.4453125 33.51953125 C-17.90486166 31.97647666 -30.01652253 31.34702868 -40.609375 38.84765625 C-50.71115205 47.08150115 -55.41538699 58.35317171 -56.78146362 71.13986206 C-57.25455976 77.33160103 -57.24481119 83.5469699 -57.31640625 89.75390625 C-57.33701621 91.26562516 -57.35801362 92.77733883 -57.37937927 94.28904724 C-57.43418312 98.23938719 -57.48377355 102.18977549 -57.53222656 106.14019775 C-57.59165484 110.89529882 -57.65764999 115.65031285 -57.72252655 120.4053421 C-57.82001037 127.60350759 -57.90922496 134.80173272 -58 142 C-70.87 142 -83.74 142 -97 142 C-97 95.47 -97 48.94 -97 1 C-84.46 1 -71.92 1 -59 1 C-58.505 11.395 -58.505 11.395 -58 22 C-56.02 19.36 -54.04 16.72 -52 14 C-38.22871343 -1.04640569 -19.59724792 -5.84479324 0 0 Z " fill="#020202" transform="translate(946,588)"/>
<path d="M0 0 C1.24426758 -0.01836914 1.24426758 -0.01836914 2.51367188 -0.03710938 C7.63429921 -0.04923399 11.83757474 0.5315876 16.6875 2.1875 C17.05270833 13.30606481 15.91973906 24.15235916 14.6875 35.1875 C7.984375 35.25 7.984375 35.25 5.3125 34.6875 C-4.68376585 32.78344936 -15.07167567 34.73843539 -23.625 40.25 C-33.59211556 47.91331999 -37.84668732 58.25021291 -39.84507751 70.43470764 C-40.30493596 74.12677062 -40.47074711 77.68902162 -40.51782227 81.40795898 C-40.52772186 82.09173111 -40.53762146 82.77550323 -40.54782104 83.47999573 C-40.57912116 85.71449456 -40.60406724 87.94901457 -40.62890625 90.18359375 C-40.64950307 91.74301164 -40.67050021 93.3024243 -40.69187927 94.86183167 C-40.74681848 98.94700857 -40.79635073 103.03223348 -40.84472656 107.11749268 C-40.90402859 112.02939807 -40.97010018 116.94121658 -41.03502655 121.85305023 C-41.13268136 129.29781333 -41.22177958 136.74263464 -41.3125 144.1875 C-54.1825 144.1875 -67.0525 144.1875 -80.3125 144.1875 C-80.3125 97.6575 -80.3125 51.1275 -80.3125 3.1875 C-67.7725 3.1875 -55.2325 3.1875 -42.3125 3.1875 C-41.8175 13.5825 -41.8175 13.5825 -41.3125 24.1875 C-40.508125 22.8675 -39.70375 21.5475 -38.875 20.1875 C-29.72901552 6.63868112 -16.06842576 0.01231297 0 0 Z " fill="#010101" transform="translate(1040.3125,836.8125)"/>
<path d="M0 0 C12.87 0 25.74 0 39 0 C39 46.53 39 93.06 39 141 C26.13 141 13.26 141 0 141 C0 94.47 0 47.94 0 0 Z " fill="#010101" transform="translate(1531,840)"/>
<path d="M0 0 C9.25608407 7.32040109 13.33415449 18.12910588 14.8046875 29.5625 C16.10752559 46.17756314 14.25901737 62.86628425 4.24609375 76.71875 C-0.86642647 82.50558344 -7.48341361 84.86590128 -14.99609375 85.9765625 C-23.36578612 86.42641867 -29.67787391 83.53278148 -36.0078125 78.1875 C-36.7296875 77.32125 -37.4515625 76.455 -38.1953125 75.5625 C-39.0409375 74.551875 -39.8865625 73.54125 -40.7578125 72.5 C-49.76394146 59.54481134 -50.10672957 39.99968099 -47.51171875 24.9453125 C-45.08088879 13.36107659 -40.02220318 4.43015656 -30.1953125 -2.4375 C-20.21065311 -8.09413163 -9.27502735 -6.07332752 0 0 Z " fill="#FCFCFC" transform="translate(881.1953125,870.4375)"/>
<path d="M0 0 C8.5973057 5.67422176 12.6709645 15.27958523 15.5637207 24.86865234 C16.54946082 29.68427137 16.18478324 34.72940252 16.1875 39.625 C16.19974609 40.76324219 16.21199219 41.90148437 16.22460938 43.07421875 C16.24949084 57.52205897 13.785078 70.18149901 3.4765625 80.859375 C-3.10951997 86.5520772 -10.26526863 87.75341373 -18.8203125 87.44140625 C-26.8551055 86.32601115 -32.53300227 82.36303128 -37.53515625 76.11328125 C-47.43168325 61.83589163 -47.95497328 42.53355745 -45.69970703 25.76757812 C-43.48855199 14.75968781 -37.19011692 5.39235493 -28 -1 C-19.83271212 -5.1812054 -7.96040821 -4.19730615 0 0 Z " fill="#FDFDFD" transform="translate(1039,618)"/>
<path d="M0 0 C4.96361723 3.79570729 8.19199587 8.7122815 10.125 14.625 C11.05953618 23.99463546 10.1212719 31.90360186 5.0625 39.875 C0.56771853 44.63574487 -4.88267407 47.26901061 -11.35546875 48.0390625 C-20.80913722 48.26197858 -28.29755888 47.06078572 -35.33203125 40.4609375 C-41.05365142 33.65293376 -41.52246598 25.72366844 -41.25390625 17.12109375 C-40.55126065 10.63792039 -38.32284198 6.74158672 -33.625 2.3125 C-23.97368813 -5.14440833 -10.66250443 -6.17302888 0 0 Z " fill="#020202" transform="translate(1565.875,775.375)"/>
<path d="M0 0 C14.85 0 29.7 0 45 0 C45 14.85 45 29.7 45 45 C30.15 45 15.3 45 0 45 C0 30.15 0 15.3 0 0 Z " fill="#070FB7" transform="translate(514,753)"/>
<path d="M0 0 C7.56696104 4.4109543 12.33293141 10.98588536 15.5625 19 C16.2225 22.63 16.8825 26.26 17.5625 30 C-1.9075 30 -21.3775 30 -41.4375 30 C-40.26314007 19.43076066 -37.40764352 10.62942234 -29.26171875 3.40234375 C-20.66407055 -3.20698324 -10.11195214 -4.55423799 0 0 Z " fill="#FCFCFC" transform="translate(1146.4375,866)"/>
<path d="M0 0 C7.54434822 4.37417554 10.79304359 11.85956209 13.91796875 19.671875 C14.66796875 22.546875 14.66796875 22.546875 14.66796875 28.546875 C-4.47203125 28.546875 -23.61203125 28.546875 -43.33203125 28.546875 C-42.26559611 17.88252359 -40.04305271 10.08264598 -32.33203125 2.546875 C-21.48308711 -4.50685546 -11.92784418 -5.49328917 0 0 Z " fill="#FCFCFC" transform="translate(1358.33203125,616.453125)"/>
<path d="M0 0 C1.09046631 -0.01933594 2.18093262 -0.03867187 3.30444336 -0.05859375 C8.25354675 -0.01859234 13.18536528 0.16437625 18.125 0.46875 C16.80116394 4.78641171 15.12576386 8.59999146 12.97265625 12.56640625 C12.36099609 13.69755859 11.74933594 14.82871094 11.11914062 15.99414062 C10.47526932 17.17318194 9.83138903 18.35221836 9.1875 19.53125 C8.54711094 20.71396804 7.90713341 21.89690901 7.26757812 23.08007812 C5.56581664 26.2169739 3.86280194 29.35167257 2.125 32.46875 C1.58770264 33.87568115 1.58770264 33.87568115 1.03955078 35.31103516 C-0.875 37.46875 -0.875 37.46875 -2.83833313 37.89237976 C-5.50488921 38.05129037 -8.12261835 38.02980309 -10.79296875 37.95703125 C-11.76534988 37.94995651 -12.73773102 37.94288177 -13.73957825 37.93559265 C-16.84799862 37.90758408 -19.95462334 37.84483275 -23.0625 37.78125 C-25.16859379 37.75617553 -27.2747158 37.73336088 -29.38085938 37.71289062 C-34.54626571 37.65773599 -39.71032835 37.57141795 -44.875 37.46875 C-42.10920749 34.06095712 -39.46606267 30.91163127 -36.08984375 28.08984375 C-32.48770395 25.01472276 -29.02157066 21.82973055 -25.58764648 18.56835938 C-24.11548896 17.17359585 -22.63402567 15.78860735 -21.14477539 14.41210938 C-18.10244491 11.59339757 -15.21511219 8.89300759 -12.6171875 5.65234375 C-9.03681145 1.32024373 -5.52624077 0.08856155 0 0 Z " fill="#060FB7" transform="translate(442.875,511.53125)"/>
<path d="M0 0 C2.41325282 1.76603948 2.90588313 2.47563456 3.4375 5.4375 C3 8 3 8 1.6875 10.25 C-1.89421427 12.58227906 -4.86202744 12.4227437 -9.0625 12.6796875 C-18.43710057 13.70191788 -26.7186405 18.95581476 -32.75390625 26.06640625 C-38.08709425 33.53821601 -41.28761202 41.94080534 -41.7265625 51.125 C-42 53 -42 53 -44 56 C-50.06809487 56.66197399 -50.06809487 56.66197399 -52.69921875 54.79296875 C-55.36754697 51.11500282 -54.4103431 46.32570016 -54 42 C-51.59799852 28.88907523 -43.83635323 17.06011316 -33.36328125 8.9609375 C-23.02840279 2.03170373 -12.6084405 -1.84149592 0 0 Z " fill="#0811B7" transform="translate(497,682)"/>
<path d="M0 0 C0.9590625 -0.02578125 1.918125 -0.0515625 2.90625 -0.078125 C5.5 0.25 5.5 0.25 7.3203125 1.578125 C9.15209608 4.17416266 8.88525232 6.16798147 8.5 9.25 C6.79191757 11.63562179 5.80232336 12.18962612 2.8984375 12.76953125 C1.90070313 12.86621094 0.90296875 12.96289062 -0.125 13.0625 C-7.68169398 14.16032479 -12.53805361 17.28805361 -17.875 22.625 C-20.80254858 27.35411693 -22.4826525 31.94879299 -22.9375 37.5 C-23.5 41.25 -23.5 41.25 -25.25 43.75 C-27.97514241 45.56676161 -29.28763724 45.82657793 -32.5 45.25 C-34.125 44.10546875 -34.125 44.10546875 -35.5 42.25 C-36.73922048 34.1894848 -35.60921246 27.23139557 -31.5 20.25 C-30.901875 19.21875 -30.30375 18.1875 -29.6875 17.125 C-22.45529727 7.61981927 -12.37027167 0.19952051 0 0 Z " fill="#0912B7" transform="translate(501.5,703.75)"/>
<path d="M0 0 C8.91 0 17.82 0 27 0 C25.3603125 4.7025 25.3603125 4.7025 23.6875 9.5 C23.34936279 10.47130859 23.01122559 11.44261719 22.6628418 12.44335938 C20.8417935 17.65574564 18.95981209 22.83815646 17 28 C11.39 28 5.78 28 0 28 C0 18.76 0 9.52 0 0 Z " fill="#040DB6" transform="translate(494,594)"/>
<path d="M0 0 C2 2 2 2 2.375 5.4375 C2 9 2 9 0.5625 10.8125 C-1.89143982 11.94969162 -3.79627456 12.35468759 -6.4375 12.8125 C-10.33782798 13.61305993 -12.58973229 14.72175289 -15.015625 18.078125 C-16.60565274 21.18246487 -17.43657602 24.44246866 -18.2265625 27.828125 C-19 30 -19 30 -22 32 C-24.5 32.375 -24.5 32.375 -27 32 C-29.19049405 30.26271162 -29.84912773 28.8140471 -30.35546875 26.08203125 C-30.78589943 19.50923841 -28.65067164 14.39345459 -25 9 C-18.17126882 1.44075339 -10.08515537 -2.09314545 0 0 Z " fill="#0A13B8" transform="translate(518,727)"/>
</svg>
